<svg width="755" height="724" viewBox="0 0 755 724" fill="none" xmlns="http://www.w3.org/2000/svg">
<mask id="mask0" mask-type="alpha" maskUnits="userSpaceOnUse" x="0" y="0" width="755" height="724">
<rect width="755" height="724" fill="#C4C4C4"/>
</mask>
<g mask="url(#mask0)">
<g opacity="0.3" clip-path="url(#clip0)">
<path opacity="0.4" d="M469.148 317.038L446.775 244.76C446.101 242.583 443.804 241.367 441.645 242.047L387.294 259.164C385.534 259.719 383.641 259.003 382.636 257.441C375.383 246.152 366.866 235.873 357.248 226.814C355.893 225.54 355.53 223.527 356.389 221.871L382.792 171.062C383.841 169.041 383.069 166.543 381.066 165.485L314.593 130.342C312.589 129.283 310.113 130.061 309.064 132.082L282.659 182.897C281.8 184.55 279.956 185.393 278.148 184.999C265.371 182.215 252.146 181.006 238.758 181.433C236.912 181.492 235.248 180.33 234.698 178.55L217.731 123.732C217.056 121.554 214.759 120.339 212.6 121.019L140.94 143.587C138.781 144.267 137.576 146.584 138.25 148.762L155.218 203.58C155.768 205.358 155.057 207.269 153.506 208.281C142.258 215.612 132.069 224.194 123.15 233.809C121.885 235.171 119.893 235.537 118.253 234.671L67.8768 208.037C65.8732 206.979 63.3992 207.757 62.3479 209.778L27.4798 276.838C26.4303 278.859 27.2019 281.354 29.2036 282.414L79.6342 309.117C81.2725 309.985 82.1081 311.845 81.7156 313.67C78.9385 326.569 77.7511 339.904 78.0795 353.379C78.1242 355.229 76.9718 356.891 75.2189 357.444L20.8762 374.557C18.7171 375.237 17.5122 377.554 18.1865 379.732L40.5762 452.064C41.2506 454.242 43.5476 455.458 45.7067 454.777L100.047 437.665C101.8 437.112 103.685 437.821 104.69 439.37C112.048 450.72 120.537 460.962 130.115 470.012C131.464 471.286 131.824 473.294 130.967 474.942L104.537 525.769C103.485 527.79 104.259 530.289 106.262 531.348L172.761 566.485C174.765 567.544 177.24 566.763 178.29 564.742L204.693 513.933C205.554 512.277 207.402 511.434 209.213 511.834C221.979 514.649 235.215 515.899 248.611 515.499C250.455 515.445 252.113 516.607 252.663 518.383L269.599 573.099C270.274 575.277 272.571 576.492 274.73 575.812L346.386 553.246C348.545 552.565 349.75 550.248 349.076 548.071L332.139 493.355C331.589 491.579 332.299 489.671 333.846 488.658C345.09 481.299 355.271 472.67 364.203 463.022C365.466 461.656 367.462 461.289 369.102 462.158L419.475 488.789C421.478 489.848 423.954 489.07 425.004 487.049L459.847 419.995C460.896 417.976 460.124 415.481 458.123 414.42L407.811 387.761C406.176 386.895 405.341 385.04 405.729 383.219C408.479 370.286 409.678 356.936 409.255 343.427C409.196 341.564 410.351 339.886 412.113 339.332L466.46 322.217C468.617 321.533 469.822 319.216 469.148 317.038ZM309.682 384.027C253.281 463.136 144.669 405.574 177.124 313.941C177.262 313.551 177.458 313.172 177.699 312.835C233.94 233.783 342.661 291.12 310.261 382.913C310.121 383.305 309.923 383.688 309.682 384.027Z" fill="#E6E4F3"/>
<path opacity="0.4" d="M725.759 85.1958L715.36 51.6014C715.047 50.5899 713.978 50.0254 712.976 50.341L687.714 58.2956C686.895 58.5544 686.015 58.2211 685.549 57.4958C682.177 52.2483 678.218 47.4712 673.748 43.2606C673.119 42.6687 672.95 41.7317 673.35 40.9633L685.622 17.3464C686.11 16.4075 685.751 15.247 684.82 14.755L653.924 -1.5796C652.993 -2.07162 651.843 -1.70898 651.355 -0.770027L639.082 22.8488C638.684 23.6172 637.827 24.0092 636.986 23.825C631.047 22.5312 624.9 21.9686 618.677 22.1666C617.818 22.1941 617.046 21.653 616.79 20.8258L608.904 -4.65324C608.591 -5.66472 607.522 -6.22927 606.519 -5.91367L573.214 4.57552C572.211 4.89112 571.651 5.96924 571.964 6.98072L579.85 32.4598C580.107 33.287 579.774 34.175 579.053 34.6454C573.826 38.0523 569.09 42.0414 564.944 46.5107C564.358 47.1439 563.431 47.3144 562.669 46.9106L539.255 34.5317C538.324 34.0397 537.174 34.4024 536.686 35.3413L520.48 66.5109C519.992 67.4499 520.35 68.6103 521.281 69.1024L544.72 81.5126C545.481 81.9164 545.868 82.7808 545.688 83.6296C544.397 89.626 543.845 95.8222 543.997 102.085C544.018 102.946 543.482 103.718 542.667 103.975L517.409 111.929C516.407 112.245 515.847 113.323 516.16 114.335L526.567 147.955C526.879 148.966 527.948 149.531 528.951 149.215L554.209 141.26C555.023 141.004 555.9 141.333 556.366 142.054C559.787 147.329 563.732 152.091 568.184 156.297C568.81 156.889 568.979 157.822 568.579 158.589L556.295 182.213C555.807 183.152 556.166 184.315 557.097 184.807L588.005 201.138C588.935 201.63 590.086 201.267 590.574 200.328L602.844 176.713C603.245 175.943 604.104 175.551 604.945 175.737C610.878 177.044 617.031 177.627 623.258 177.44C624.115 177.415 624.886 177.956 625.141 178.781L633.013 204.213C633.326 205.225 634.395 205.789 635.398 205.474L668.703 194.984C669.706 194.669 670.266 193.591 669.953 192.579L662.08 167.147C661.826 166.322 662.154 165.434 662.873 164.963C668.099 161.543 672.831 157.532 676.982 153.047C677.569 152.412 678.498 152.242 679.26 152.645L702.674 165.024C703.605 165.516 704.755 165.154 705.243 164.215L721.437 133.049C721.925 132.11 721.567 130.95 720.636 130.458L697.252 118.067C696.492 117.665 696.103 116.803 696.284 115.956C697.561 109.944 698.118 103.74 697.922 97.461C697.895 96.5946 698.431 95.8164 699.251 95.5576L724.511 87.603C725.512 87.2854 726.072 86.2073 725.759 85.1958ZM651.641 116.332C625.426 153.102 574.943 126.347 590.028 83.757C590.092 83.5767 590.183 83.4003 590.294 83.2435C616.434 46.5009 666.968 73.1502 651.909 115.815C651.845 115.997 651.753 116.175 651.641 116.332Z" fill="#E6E4F3"/>
<path d="M619.88 250.518L619.829 248.324C623.407 248.24 627.026 248.003 630.586 247.62L630.815 249.802C627.197 250.19 623.518 250.431 619.88 250.518ZM608.923 250.328C605.297 250.12 601.632 249.761 598.027 249.265L598.322 247.091C601.871 247.581 605.478 247.932 609.048 248.138L608.923 250.328ZM641.655 248.191L641.251 246.035C644.738 245.37 648.275 244.551 651.763 243.6L652.33 245.717C648.79 246.685 645.198 247.517 641.655 248.191ZM587.249 247.344C583.729 246.576 580.163 245.652 576.646 244.602L577.264 242.498C580.729 243.533 584.242 244.441 587.709 245.2L587.249 247.344ZM662.79 242.432L662.067 240.362C665.413 239.174 668.795 237.835 672.118 236.386L672.981 238.4C669.613 239.872 666.185 241.228 662.79 242.432ZM566.276 241.099C562.931 239.838 559.526 238.427 556.159 236.902L557.049 234.901C560.376 236.406 563.734 237.8 567.036 239.042L566.276 241.099ZM682.878 233.695L681.889 231.741C685.032 230.121 688.219 228.353 691.361 226.487L692.465 228.379C689.282 230.269 686.058 232.056 682.878 233.695ZM546.317 232.092C543.175 230.445 539.955 228.647 536.75 226.75L537.85 224.858C541.025 226.738 544.211 228.516 547.32 230.145L546.317 232.092ZM701.727 222.524L700.52 220.697C703.449 218.731 706.428 216.621 709.376 214.424L710.669 216.188C707.695 218.407 704.685 220.538 701.727 222.524ZM527.453 220.955C524.495 219.023 521.452 216.943 518.404 214.779L519.658 212.985C522.682 215.134 525.704 217.196 528.636 219.115L527.453 220.955ZM719.295 209.425L717.923 207.724C720.673 205.464 723.45 203.082 726.171 200.646L727.615 202.286C724.871 204.744 722.071 207.146 719.295 209.425ZM509.583 208.286C506.8 206.171 503.899 203.901 500.961 201.539L502.315 199.822C505.151 202.1 508.009 204.341 510.891 206.532L509.583 208.286ZM735.639 194.814L734.135 193.23C736.691 190.758 739.275 188.163 741.819 185.516L743.382 187.043C740.816 189.711 738.212 192.324 735.639 194.814ZM492.505 194.59C489.714 192.248 486.941 189.878 484.187 187.49L485.604 185.826C488.35 188.208 491.114 190.57 493.896 192.905L492.505 194.59ZM475.971 180.281C473.24 177.862 470.527 175.433 467.822 173.006L469.268 171.368C471.969 173.792 474.682 176.217 477.407 178.632L475.971 180.281ZM750.84 179.012L749.229 177.538C750.965 175.607 752.675 173.663 754.356 171.705L756 173.142C754.307 175.112 752.589 177.07 750.84 179.012ZM459.707 165.71C456.99 163.268 454.281 160.835 451.577 158.424L453.017 156.781C455.723 159.194 458.434 161.631 461.152 164.075L459.707 165.71ZM34.3418 156.885L32.4878 155.737C34.3943 152.606 36.4096 149.501 38.4754 146.51L40.2594 147.762C38.2189 150.72 36.2269 153.79 34.3418 156.885ZM443.406 151.195C440.652 148.786 437.902 146.408 435.15 144.075L436.549 142.395C439.309 144.738 442.069 147.121 444.83 149.538L443.406 151.195ZM46.6901 138.998L44.9799 137.644C47.2225 134.762 49.5799 131.908 51.9858 129.162L53.6143 130.614C51.2376 133.329 48.9075 136.152 46.6901 138.998ZM426.768 137.12C423.946 134.839 421.066 132.575 418.21 130.389L419.525 128.64C422.398 130.838 425.291 133.116 428.129 135.409L426.768 137.12ZM409.476 123.891C406.547 121.774 403.551 119.67 400.572 117.64L401.788 115.822C404.785 117.865 407.797 119.978 410.741 122.107L409.476 123.891ZM61.003 122.646L59.4561 121.103C62.0097 118.5 64.6702 115.938 67.3657 113.484L68.8232 115.113C66.1588 117.538 63.5275 120.072 61.003 122.646ZM391.5 111.641C388.451 109.685 385.345 107.754 382.265 105.9L383.38 104.016C386.478 105.88 389.603 107.823 392.668 109.789L391.5 111.641ZM77.0515 108.031L75.6853 106.321C78.4973 104.032 81.4221 101.781 84.3761 99.6329L85.649 101.411C82.7261 103.54 79.8324 105.765 77.0515 108.031ZM372.875 100.431C369.709 98.6489 366.498 96.9023 363.329 95.2401L364.333 93.2955C367.521 94.9676 370.752 96.724 373.936 98.5176L372.875 100.431ZM94.5846 95.2655L93.4069 93.421C96.4444 91.449 99.5869 89.5221 102.747 87.6951L103.827 89.5985C100.7 91.4059 97.591 93.3132 94.5846 95.2655ZM353.635 90.3375C350.394 88.7595 347.084 87.2129 343.8 85.7388L344.684 83.7335C347.99 85.2174 351.319 86.7758 354.58 88.3616L353.635 90.3375ZM113.348 84.4157L112.363 82.4594C115.583 80.8088 118.9 79.2132 122.221 77.7117L123.11 79.715C119.821 81.2009 116.535 82.7828 113.348 84.4157ZM333.83 81.4518C330.487 80.0777 327.088 78.7447 323.728 77.4902L324.482 75.4339C327.866 76.6963 331.288 78.039 334.65 79.421L333.83 81.4518ZM133.089 75.4966L132.296 73.4521C135.666 72.1231 139.117 70.8528 142.557 69.6787L143.253 71.7565C139.846 72.9228 136.426 74.1794 133.089 75.4966ZM313.5 73.8677C310.065 72.7151 306.586 71.6154 303.162 70.598L303.776 68.4947C307.225 69.5199 310.729 70.6274 314.188 71.7859L313.5 73.8677ZM153.584 68.4947L152.981 66.3855C156.452 65.376 160.005 64.4272 163.538 63.5706L164.047 65.7053C160.543 66.556 157.023 67.493 153.584 68.4947ZM292.718 67.693C289.22 66.7873 285.673 65.9386 282.177 65.1682L282.64 63.0257C286.163 63.8019 289.735 64.6566 293.258 65.5681L292.718 67.693ZM174.625 63.3863L174.209 61.232C177.765 60.5342 181.386 59.903 184.969 59.36L185.292 61.53C181.739 62.0691 178.15 62.6924 174.625 63.3863ZM271.549 63.0354C267.979 62.3886 264.378 61.8103 260.85 61.3105L261.152 59.1385C264.706 59.6403 268.334 60.2264 271.932 60.8753L271.549 63.0354ZM196.033 60.1363L195.802 57.9545C199.401 57.5664 203.06 57.2489 206.681 57.0117L206.821 59.2012C203.231 59.4365 199.601 59.7521 196.033 60.1363ZM250.098 60.0049C246.489 59.6403 242.857 59.3463 239.3 59.1326L239.43 56.9431C243.018 57.1587 246.679 57.4547 250.315 57.8232L250.098 60.0049ZM217.639 58.723L217.589 56.5295C221.233 56.4432 224.878 56.4354 228.515 56.5079L228.474 58.7014C224.869 58.6347 221.256 58.6387 217.639 58.723Z" fill="#CBC9E6"/>
</g>
<mask id="mask1" mask-type="alpha" maskUnits="userSpaceOnUse" x="-369" y="376" width="1095" height="331">
<g clip-path="url(#clip1)">
<path d="M726 376H468.634L566.714 474.01C463.531 569.492 339.157 649.094 195.964 711.174C35.6607 780.673 -154.42 830.886 -369 860.419L-359.273 931C-138.268 900.581 58.0877 848.612 224.34 776.534C375.885 710.832 507.672 626.21 617.163 524.424L726 633.182V376Z" fill="#8B264F"/>
</g>
</mask>
<g mask="url(#mask1)">
<rect x="-672" y="79" width="1464" height="626" fill="#8B264F"/>
</g>
<g clip-path="url(#clip2)">
<path d="M256.272 249.634L253.912 263.228L253.211 266.649C252.777 274.046 245.523 278.801 237.524 283.27L225.183 260.26L231.687 238.048L243.517 234.602L254.645 247.717L256.272 249.634Z" fill="#D38673"/>
<path d="M256.272 249.634L253.912 263.228C246.196 258.599 241.86 251.9 238.669 242.484L254.645 247.717L256.272 249.634Z" fill="#201F42"/>
<path d="M268.159 220.244C265.766 230.812 267.906 246.369 263.477 251.383C259.446 255.945 251.92 253.173 247.496 250.764C241.483 247.489 236.699 242.503 233.281 236.598C225.309 222.837 236.669 213.663 236.669 213.663L251.417 207.28C251.417 207.277 268.168 220.219 268.159 220.244Z" fill="#D38673"/>
<path d="M247.1 233.939C247.452 228.084 244.759 222.845 249.49 219.71C270.017 227.688 268.555 225.229 281.31 211.066C281.31 211.066 274.735 211.864 268.555 207.277C262.378 202.69 245.039 188.727 234.078 210.668C234.078 210.668 210.097 218.115 230.423 242.448C232.751 237.528 241.099 236.002 247.1 233.939Z" fill="#201F42"/>
<path d="M248.95 232.33C249.455 229.214 247.341 226.279 244.228 225.773C241.115 225.268 238.182 227.383 237.677 230.499C237.172 233.614 239.286 236.55 242.399 237.055C245.512 237.561 248.445 235.445 248.95 232.33Z" fill="#D38673"/>
<path d="M387.534 213.861C389.658 221.709 389.886 229.635 389.128 237.597L391.917 262.13L369.596 256.545L368.401 239.591C362.82 234.005 359.632 220.043 359.234 219.446L387.534 213.861Z" fill="#D38673"/>
<path d="M473 207.508L435.555 213.385L287.029 236.653L284.929 225.683L431.538 192.385L468.502 184L473 207.508Z" fill="#EB5D57"/>
<path d="M473 207.508L435.555 213.385L431.538 192.385L468.502 184L473 207.508Z" fill="#201F42"/>
<path d="M369.596 207.676C369.596 209.328 367.455 210.668 364.812 210.668C362.171 210.668 360.028 209.328 360.028 207.676C360.028 206.023 362.169 204.683 364.812 204.683C367.455 204.683 369.596 206.023 369.596 207.676Z" fill="#D38673"/>
<path d="M372.388 207.876C375.03 207.876 377.172 206.537 377.172 204.884C377.172 203.232 375.03 201.892 372.388 201.892C369.746 201.892 367.604 203.232 367.604 204.884C367.604 206.537 369.746 207.876 372.388 207.876Z" fill="#D38673"/>
<path d="M385.74 203.487C385.74 205.14 383.599 206.479 380.956 206.479C378.315 206.479 376.172 205.14 376.172 203.487C376.172 201.834 378.312 200.495 380.956 200.495C383.599 200.495 385.74 201.834 385.74 203.487Z" fill="#D38673"/>
<path d="M372.786 226.624C372.786 230.424 375.413 233.603 372.388 233.603C369.36 233.603 366.408 231.621 366.408 227.82C366.408 224.019 362.479 218.951 365.213 217.647C369.398 215.654 372.786 222.823 372.786 226.624Z" fill="#D38673"/>
<path d="M369.332 252.887L390.589 250.558L391.518 258.671L369.332 252.887Z" fill="#201F42"/>
<path d="M398.836 260.676C398.836 260.676 398.836 351.627 347.275 345.244C343.928 344.829 340.642 344.35 337.421 343.808C320.107 340.841 305.184 336.149 293.992 331.873C280.121 326.606 271.96 321.981 271.96 321.981L253.211 266.643C290.615 276.09 324.702 286.716 350.083 300.406L366.793 252.153L398.836 260.676Z" fill="#F9B04D"/>
<path d="M337.424 343.808C320.11 340.841 305.186 336.149 293.995 331.873L295.047 316.777C316.252 321.981 331.077 334.169 337.424 343.808Z" fill="#201F42"/>
<path d="M350.864 443.232L303.167 417.038L253.211 266.649C300.699 318.318 340.367 379.804 350.864 443.232Z" fill="#BF8534"/>
<path d="M364.62 667.019L359.569 722.865H419.848L396.951 696.538L397.959 663.031L364.62 667.019Z" fill="#201F42"/>
<path d="M395.851 695.41L383.908 706.845L386.114 709.153L398.057 697.717L395.851 695.41Z" fill="white"/>
<path d="M257.198 425.28L266.365 477.138L350.465 517.029V685.368L411.05 679.251L414.957 527.911C415.504 502.439 403.224 478.401 382.272 463.93L319.376 420.495" fill="#4C55A1"/>
<path d="M294.662 471.022C303.131 480.078 308.704 489.319 310.872 498.149L291.607 489.107L294.662 471.022Z" fill="#201F42"/>
<path d="M271.11 237.256C270.69 238.386 268.637 240.08 265.865 239.744C263.716 239.483 261.49 235.776 261.49 233.067C261.49 230.358 263.249 228.161 265.42 228.161C268.659 228.161 271.506 236.189 271.11 237.256Z" fill="#D38673"/>
<path d="M207.437 671.939L194.803 723H258.308L237.029 697.867L239.689 672.338L207.437 671.939Z" fill="#201F42"/>
<path d="M235.857 696.775L224.804 708.746L227.145 710.911L238.198 698.94L235.857 696.775Z" fill="white"/>
<path d="M299.845 421.691C293.025 506.763 271.234 597.211 250.82 690.156L192.627 689.358C214.703 590.638 223.883 499.648 222.122 421.292L299.845 421.691Z" fill="#4C55A1"/>
<path d="M253.211 266.649C247.886 273.777 237.867 270.086 225.183 260.26L246.833 436.85C271.058 434.878 295.234 428.99 319.376 420.495L253.211 266.649Z" fill="white"/>
<path d="M271.292 461.724L203.788 491.5C197.411 413.314 184.655 362.253 179.074 300.024C176.843 275.133 225.183 260.26 225.183 260.26C244.091 283.301 256.561 311.418 263.892 343.552C266.475 354.88 268.42 366.722 269.792 379.04C272.663 404.761 272.982 432.46 271.292 461.724Z" fill="#F9B04D"/>
<path d="M253.211 266.649C298.41 326.29 334.575 385.373 350.864 443.232C353.254 381.402 309.52 311.822 253.211 266.649Z" fill="#F9B04D"/>
<path d="M298.512 251.908L303.497 238.911C303.497 238.911 299.026 223.64 303.266 221.745C307.503 219.85 322.02 217.185 325.68 216.91C329.337 216.635 334.509 210.813 335.968 211.581C337.427 212.348 335.957 223.153 329.175 223.838C329.175 223.838 327.829 245.679 321.267 244.593L316.106 264.616L298.512 251.908Z" fill="#D38673"/>
<path d="M269.792 379.04C247.663 378.209 220.176 363.147 205.382 343.107L263.895 343.552C266.475 354.883 268.42 366.722 269.792 379.04Z" fill="#201F42"/>
<path d="M203.788 296.432L254.409 313.585L296.259 249.362L324.16 267.311C324.16 267.311 297.855 372.624 250.82 362.652C208.13 353.601 198.207 339.117 198.207 339.117L203.788 296.432Z" fill="#F9B04D"/>
<path d="M254.67 314.349L203.582 297.037L203.992 295.83L254.143 312.823L295.723 249.012L296.795 249.711L254.67 314.349Z" fill="#201F42"/>
<path d="M298.798 250.957L318.379 255.896L316.736 262.477L298.798 250.957Z" fill="#201F42"/>
</g>
</g>
<defs>
<clipPath id="clip0">
<rect width="738" height="582" fill="white" transform="translate(18 -6)"/>
</clipPath>
<clipPath id="clip1">
<rect width="1095" height="331" fill="white" transform="translate(-369 376)"/>
</clipPath>
<clipPath id="clip2">
<rect width="294" height="539" fill="white" transform="translate(179 184)"/>
</clipPath>
</defs>
</svg>
