<svg width="108" height="108" viewBox="0 0 108 108" fill="none" xmlns="http://www.w3.org/2000/svg">
<path fill-rule="evenodd" clip-rule="evenodd" d="M105.416 2.58373H2.58373V105.416H105.416V2.58373ZM0 0V108H108V0H0Z" fill="white"/>
<path d="M23.3082 32.8578C20.7951 32.8578 18.7614 32.111 17.2072 30.6173C15.6529 29.1135 14.8758 27.1605 14.8758 24.7585V24.3346C14.8758 22.6592 15.1836 21.1806 15.7992 19.8988C16.425 18.617 17.3333 17.628 18.5243 16.9316C19.7152 16.2251 21.1282 15.8718 22.7632 15.8718C25.0643 15.8718 26.881 16.5884 28.2133 18.0216C29.5455 19.4446 30.2116 21.4329 30.2116 23.9864V25.9696H20.0684C20.2501 26.888 20.6488 27.6096 21.2644 28.1345C21.8801 28.6593 22.6774 28.9217 23.6564 28.9217C25.2712 28.9217 26.5328 28.3565 27.4412 27.2261L29.7726 29.9814C29.1367 30.8595 28.2334 31.5609 27.0627 32.0858C25.902 32.6005 24.6505 32.8578 23.3082 32.8578ZM22.7329 19.808C21.2392 19.808 20.351 20.7971 20.0684 22.7752H25.2157V22.3816C25.2359 21.5641 25.029 20.9333 24.595 20.4892C24.161 20.0351 23.5403 19.808 22.7329 19.808Z" fill="white"/>
<path d="M42.0352 30.7838C40.9553 32.1665 39.4969 32.8578 37.66 32.8578C35.8635 32.8578 34.501 32.3381 33.5725 31.2985C32.6541 30.2489 32.1948 28.7451 32.1948 26.7871V16.1746H37.2967V26.8174C37.2967 28.2202 37.978 28.9217 39.3405 28.9217C40.5112 28.9217 41.3439 28.5028 41.8384 27.6651V16.1746H46.9706V32.5551H42.1866L42.0352 30.7838Z" fill="white"/>
<path d="M54.6006 16.1746L54.7672 18.0973C55.9278 16.6136 57.4871 15.8718 59.4451 15.8718C61.5141 15.8718 62.912 16.6944 63.6386 18.3395C64.7488 16.6944 66.3536 15.8718 68.4529 15.8718C71.7734 15.8718 73.479 17.8803 73.5699 21.8972V32.5551H68.4529V22.2151C68.4529 21.3774 68.3116 20.7668 68.029 20.3833C67.7464 19.9997 67.2317 19.808 66.4848 19.808C65.4755 19.808 64.7236 20.2571 64.2291 21.1554L64.2442 21.3673V32.5551H59.1272V22.2454C59.1272 21.3875 58.991 20.7668 58.7185 20.3833C58.446 19.9997 57.9262 19.808 57.1591 19.808C56.1801 19.808 55.4333 20.2571 54.9186 21.1554V32.5551H49.8167V16.1746H54.6006Z" fill="white"/>
<path d="M84.4094 32.8578C81.8963 32.8578 79.8627 32.111 78.3084 30.6173C76.7541 29.1135 75.977 27.1605 75.977 24.7585V24.3346C75.977 22.6592 76.2848 21.1806 76.9005 19.8988C77.5262 18.617 78.4346 17.628 79.6255 16.9316C80.8164 16.2251 82.2294 15.8718 83.8644 15.8718C86.1656 15.8718 87.9822 16.5884 89.3145 18.0216C90.6467 19.4446 91.3128 21.4329 91.3128 23.9864V25.9696H81.1697C81.3513 26.888 81.75 27.6096 82.3657 28.1345C82.9813 28.6593 83.7786 28.9217 84.7576 28.9217C86.3725 28.9217 87.634 28.3565 88.5424 27.2261L90.8738 29.9814C90.238 30.8595 89.3347 31.5609 88.1639 32.0858C87.0033 32.6005 85.7518 32.8578 84.4094 32.8578ZM83.8341 19.808C82.3404 19.808 81.4523 20.7971 81.1697 22.7752H86.317V22.3816C86.3371 21.5641 86.1302 20.9333 85.6963 20.4892C85.2623 20.0351 84.6416 19.808 83.8341 19.808Z" fill="white"/>
<path d="M14.7395 55.2031C14.7395 52.5992 15.3047 50.5604 16.4351 49.0869C17.5655 47.6134 19.1248 46.8766 21.113 46.8766C22.7884 46.8766 24.1308 47.5629 25.14 48.9355L25.5034 47.1794H29.924V69.8577H24.807V62.1973C23.828 63.3075 22.5866 63.8626 21.0828 63.8626C19.145 63.8626 17.6008 63.1158 16.4502 61.6221C15.3097 60.1182 14.7395 57.9786 14.7395 55.2031ZM19.8414 55.521C19.8414 58.458 20.6892 59.9265 22.3847 59.9265C23.5555 59.9265 24.3629 59.4824 24.807 58.5942V52.1147C24.3831 51.2467 23.5858 50.8128 22.415 50.8128C20.8304 50.8128 19.9776 52.0794 19.8565 54.6127L19.8414 55.521Z" fill="white"/>
<path d="M42.5802 61.7886C41.5003 63.1713 40.0419 63.8626 38.205 63.8626C36.4085 63.8626 35.046 63.3429 34.1175 62.3033C33.1991 61.2537 32.7398 59.7499 32.7398 57.7919V47.1794H37.8417V57.8221C37.8417 59.225 38.523 59.9265 39.8855 59.9265C41.0562 59.9265 41.8889 59.5076 42.3834 58.6699V47.1794H47.5156V63.5598H42.7316L42.5802 61.7886Z" fill="white"/>
<path d="M58.2491 63.8626C55.7361 63.8626 53.7024 63.1158 52.1481 61.6221C50.5938 60.1182 49.8167 58.1653 49.8167 55.7632V55.3393C49.8167 53.664 50.1245 52.1854 50.7402 50.9036C51.3659 49.6218 52.2743 48.6327 53.4652 47.9363C54.6561 47.2299 56.0691 46.8766 57.7041 46.8766C60.0053 46.8766 61.822 47.5932 63.1542 49.0264C64.4864 50.4494 65.1526 52.4377 65.1526 54.9911V56.9744H55.0094C55.1911 57.8928 55.5897 58.6144 56.2054 59.1392C56.821 59.6641 57.6184 59.9265 58.5973 59.9265C60.2122 59.9265 61.4738 59.3613 62.3821 58.2309L64.7135 60.9862C64.0777 61.8643 63.1744 62.5657 62.0036 63.0905C60.843 63.6053 59.5915 63.8626 58.2491 63.8626ZM57.6739 50.8128C56.1801 50.8128 55.292 51.8018 55.0094 53.78H60.1567V53.3864C60.1769 52.5689 59.97 51.9381 59.536 51.494C59.102 51.0399 58.4813 50.8128 57.6739 50.8128Z" fill="white"/>
<path d="M77.1275 51.7968L75.4471 51.6757C73.8424 51.6757 72.8129 52.1803 72.3587 53.1896V63.5598H67.2569V47.1794H72.0408L72.2074 49.2837C73.0652 47.679 74.2612 46.8766 75.7953 46.8766C76.3403 46.8766 76.8147 46.9372 77.2184 47.0583L77.1275 51.7968Z" fill="white"/>
<path d="M77.7785 55.2182C77.7785 53.5832 78.0964 52.1299 78.7323 50.8582C79.3681 49.5764 80.2815 48.5924 81.4725 47.9061C82.6634 47.2198 84.0612 46.8766 85.666 46.8766C88.1185 46.8766 90.0513 47.6386 91.4642 49.1626C92.8772 50.6765 93.5837 52.7405 93.5837 55.3545V55.5361C93.5837 58.0896 92.8722 60.1182 91.4491 61.6221C90.0361 63.1158 88.1185 63.8626 85.6963 63.8626C83.3648 63.8626 81.4926 63.1662 80.0797 61.7734C78.6667 60.3706 77.9047 58.4731 77.7937 56.0812L77.7785 55.2182ZM82.8804 55.5361C82.8804 57.0501 83.1176 58.1603 83.5919 58.8667C84.0663 59.5732 84.7677 59.9265 85.6963 59.9265C87.5129 59.9265 88.4415 58.5286 88.4818 55.733V55.2182C88.4818 52.2813 87.5432 50.8128 85.666 50.8128C83.9603 50.8128 83.0368 52.0794 82.8955 54.6127L82.8804 55.5361Z" fill="white"/>
<path d="M30.5901 86.5107C30.5901 89.1953 30.035 91.2593 28.9248 92.7025C27.8146 94.1458 26.2502 94.8674 24.2317 94.8674C22.5664 94.8674 21.2241 94.2063 20.2047 92.8842L19.9928 94.5646H15.4208V71.311H20.5226V79.5013C21.4713 78.4214 22.6976 77.8814 24.2014 77.8814C26.2401 77.8814 27.8146 78.6131 28.9248 80.0766C30.035 81.54 30.5901 83.5989 30.5901 86.2533V86.5107ZM25.4731 86.1927C25.4731 84.6183 25.2611 83.498 24.8373 82.8319C24.4235 82.1557 23.7826 81.8176 22.9146 81.8176C21.764 81.8176 20.9667 82.2566 20.5226 83.1346V89.6444C20.9566 90.5124 21.764 90.9464 22.9449 90.9464C24.1459 90.9464 24.9079 90.361 25.2309 89.1903C25.3924 88.615 25.4731 87.6158 25.4731 86.1927Z" fill="white"/>
<path d="M40.7787 94.8674C38.2656 94.8674 36.2319 94.1206 34.6776 92.6268C33.1234 91.123 32.3462 89.1701 32.3462 86.768V86.3441C32.3462 84.6687 32.6541 83.1902 33.2697 81.9084C33.8955 80.6266 34.8038 79.6375 35.9947 78.9411C37.1857 78.2346 38.5987 77.8814 40.2337 77.8814C42.5348 77.8814 44.3515 78.598 45.6837 80.0311C47.016 81.4542 47.6821 83.4425 47.6821 85.9959V87.9791H37.5389C37.7206 88.8976 38.1192 89.6192 38.7349 90.144C39.3506 90.6688 40.1479 90.9313 41.1269 90.9313C42.7417 90.9313 44.0033 90.3661 44.9116 89.2357L47.2431 91.991C46.6072 92.8691 45.7039 93.5705 44.5332 94.0953C43.3725 94.61 42.121 94.8674 40.7787 94.8674ZM40.2034 81.8176C38.7097 81.8176 37.8215 82.8066 37.5389 84.7848H42.6862V84.3912C42.7064 83.5737 42.4995 82.9429 42.0655 82.4988C41.6315 82.0446 41.0108 81.8176 40.2034 81.8176Z" fill="white"/>
<path d="M54.5704 78.1842L54.7369 80.1068C55.8975 78.6232 57.4569 77.8814 59.4149 77.8814C61.4839 77.8814 62.8817 78.7039 63.6084 80.3491C64.7186 78.7039 66.3233 77.8814 68.4226 77.8814C71.7431 77.8814 73.4488 79.8898 73.5396 83.9067V94.5646H68.4226V84.2247C68.4226 83.387 68.2813 82.7764 67.9987 82.3928C67.7161 82.0093 67.2014 81.8176 66.4545 81.8176C65.4452 81.8176 64.6933 82.2667 64.1988 83.1649L64.2139 83.3769V94.5646H59.0969V84.2549C59.0969 83.3971 58.9607 82.7764 58.6882 82.3928C58.4157 82.0093 57.8959 81.8176 57.1289 81.8176C56.1499 81.8176 55.403 82.2667 54.8883 83.1649V94.5646H49.7864V78.1842H54.5704Z" fill="white"/>
</svg>
